<?xml version="1.0" standalone="no"?>
<!DOCTYPE svg PUBLIC "-//W3C//DTD SVG 20010904//EN"
 "http://www.w3.org/TR/2001/REC-SVG-20010904/DTD/svg10.dtd">
<svg version="1.0" xmlns="http://www.w3.org/2000/svg"
 width="588.000000pt" height="588.000000pt" viewBox="0 0 588.000000 588.000000"
 preserveAspectRatio="xMidYMid meet">
<metadata>
Created by potrace 1.11, written by Peter Selinger 2001-2013
</metadata>
<g transform="translate(0.000000,588.000000) scale(0.100000,-0.100000)"
fill="#000000" stroke="none">
<path d="M2897 5674 c-1 -1 -153 -5 -337 -9 -352 -7 -382 -8 -575 -19 -204
-13 -313 -22 -380 -32 -16 -2 -48 -6 -70 -8 -164 -18 -349 -59 -503 -111 -7
-3 -16 -5 -20 -7 -4 -1 -38 -17 -76 -36 -247 -120 -384 -292 -530 -667 -26
-66 -51 -129 -56 -140 -4 -11 -13 -36 -20 -55 -7 -19 -18 -48 -25 -65 -7 -16
-27 -68 -43 -115 -30 -82 -57 -153 -83 -215 -7 -16 -13 -32 -13 -35 -1 -3 -14
-36 -30 -73 -16 -37 -26 -71 -22 -74 3 -3 39 -8 78 -10 40 -3 84 -5 97 -6 18
-2 33 9 58 43 18 25 37 55 43 68 5 12 26 47 45 77 19 31 35 58 35 60 0 12 92
147 140 205 121 146 252 237 437 303 40 15 85 28 100 31 15 2 28 5 28 6 0 2
35 9 80 16 22 3 60 10 85 14 52 10 484 5 517 -5 12 -4 20 -12 18 -18 -2 -7 -6
-91 -10 -187 -8 -256 -14 -349 -30 -515 -3 -22 -7 -65 -10 -95 -7 -73 -16
-149 -20 -169 -2 -9 -6 -44 -10 -76 -4 -33 -9 -69 -11 -80 -2 -10 -6 -37 -9
-60 -3 -22 -8 -53 -12 -70 -3 -16 -7 -39 -9 -50 -4 -28 -13 -72 -25 -130 -6
-27 -13 -61 -15 -75 -3 -14 -10 -43 -15 -65 -5 -22 -12 -51 -15 -65 -2 -14 -7
-33 -10 -42 -3 -9 -7 -25 -9 -35 -9 -41 -74 -270 -85 -298 -7 -16 -13 -37 -15
-45 -7 -35 -98 -267 -151 -386 -81 -183 -161 -333 -289 -543 -22 -34 -50 -76
-60 -87 -5 -7 -22 -31 -37 -55 -22 -36 -136 -196 -166 -234 -4 -5 -21 -28 -37
-50 -17 -22 -32 -42 -35 -45 -16 -16 -110 -160 -110 -169 0 -6 -4 -11 -10 -11
-5 0 -10 -6 -10 -14 0 -7 -7 -19 -15 -26 -9 -7 -13 -15 -11 -18 3 -3 -3 -17
-13 -31 -46 -68 -70 -228 -50 -336 5 -28 12 -63 14 -78 3 -15 9 -36 14 -45 5
-9 21 -42 36 -72 27 -55 82 -129 120 -163 55 -49 72 -63 90 -74 32 -20 147
-75 164 -78 158 -34 174 -35 276 -21 79 12 124 25 204 62 180 83 288 215 414
504 14 33 65 188 72 220 2 8 4 15 5 15 1 0 3 7 5 16 1 9 14 63 28 120 14 57
29 124 33 149 4 25 8 47 9 50 4 15 18 97 20 110 1 8 5 33 9 55 3 22 9 55 11
73 6 39 12 77 19 117 2 17 8 57 12 90 3 33 8 68 10 79 2 10 6 44 10 75 3 31 8
70 10 86 4 29 13 117 19 180 2 17 4 30 4 30 1 0 4 23 6 50 2 28 6 74 9 103 8
71 14 135 21 212 3 36 7 85 10 110 3 25 8 77 11 115 9 115 13 156 19 219 8 83
14 160 20 231 2 33 7 85 9 115 11 122 17 188 21 245 3 33 7 85 10 115 3 30 7
84 10 120 3 36 8 90 11 120 2 30 6 84 9 120 2 36 6 87 9 115 3 27 8 75 11 105
13 159 18 208 21 235 2 17 6 69 9 116 6 88 11 129 19 136 6 7 1226 4 1237 -2
5 -4 8 -14 5 -23 -3 -10 -8 -66 -11 -127 -12 -188 -20 -308 -30 -405 -2 -25
-7 -76 -10 -115 -3 -38 -8 -95 -11 -125 -3 -30 -7 -71 -9 -90 -17 -196 -23
-255 -24 -255 -1 0 -4 -29 -6 -65 -3 -36 -7 -83 -9 -105 -3 -22 -8 -71 -11
-110 -4 -38 -9 -81 -11 -95 -2 -14 -6 -54 -9 -90 -4 -59 -8 -104 -19 -215 -3
-22 -8 -74 -11 -115 -4 -41 -9 -88 -11 -105 -1 -16 -5 -64 -9 -105 -3 -41 -8
-93 -10 -115 -3 -22 -8 -76 -11 -120 -2 -44 -6 -100 -8 -125 -7 -91 -19 -256
-21 -295 -1 -22 -6 -103 -11 -180 -7 -116 -10 -579 -5 -650 4 -47 41 -206 66
-280 94 -280 292 -501 545 -608 78 -33 215 -74 250 -76 8 0 35 -4 60 -7 54 -9
287 -10 350 -1 108 14 223 52 333 109 43 23 84 46 90 52 7 6 30 23 53 39 55
37 169 151 224 223 25 33 48 60 53 62 4 2 7 7 7 12 0 5 17 35 39 67 39 59 133
247 146 293 4 14 11 30 15 35 12 16 88 269 96 320 2 11 5 31 9 45 3 14 8 41
11 60 3 19 7 40 9 47 4 13 18 168 19 218 l1 30 -103 1 c-57 0 -105 -3 -107 -6
-3 -4 -7 -32 -10 -61 -3 -30 -7 -65 -10 -79 -9 -42 -16 -74 -19 -85 -2 -5 -6
-23 -11 -40 -4 -16 -26 -68 -49 -115 -30 -63 -59 -103 -111 -156 -39 -39 -81
-75 -93 -78 -12 -4 -22 -12 -22 -17 0 -5 -9 -9 -20 -9 -11 0 -20 -4 -20 -9 0
-5 -10 -11 -22 -14 -13 -3 -48 -13 -78 -22 -30 -9 -66 -18 -80 -21 -36 -6
-200 -5 -230 1 -41 10 -64 15 -86 19 -27 5 -119 52 -158 80 -163 115 -258 342
-293 696 -9 96 -9 521 1 670 11 176 22 313 31 405 2 22 7 72 10 110 8 84 13
139 20 203 3 26 7 70 10 97 13 145 17 192 20 207 2 9 6 54 10 100 3 46 8 99
10 118 3 30 8 79 20 230 3 37 15 211 20 295 2 28 6 140 10 250 4 110 9 202 10
205 3 5 504 5 1005 1 25 -1 52 -1 60 0 8 0 72 -1 141 -2 69 -1 130 1 135 4 5
3 9 89 8 194 -2 103 -3 295 -4 426 -1 130 -5 237 -8 238 -35 5 -2859 18 -2865
13z"/>
</g>
</svg>
